<svg width="31" height="25" viewBox="0 0 31 25" fill="none" xmlns="http://www.w3.org/2000/svg">
<g clip-path="url(#clip0_59424_10849)">
<path fill-rule="evenodd" clip-rule="evenodd" d="M26.8432 15.6374H15.8225C17.0729 15.5483 18.2324 15.0772 19.06 14.322C19.8876 13.5668 20.3197 12.5855 20.2664 11.5821C20.2132 10.5786 19.6788 9.63019 18.7741 8.93378C17.8695 8.23738 16.6643 7.84658 15.4089 7.84257H11.8089C12.3471 7.26361 12.732 6.60291 12.9402 5.90087C13.1484 5.19883 13.1753 4.47021 13.0195 3.75954C12.8636 3.04888 12.5283 2.37111 12.0338 1.76767C11.5394 1.16424 10.8963 0.647825 10.1439 0.25L26.8432 0.25C27.6097 0.250908 28.3444 0.495135 28.886 0.92905C29.4275 1.36296 29.7317 1.95109 29.7317 2.56429V13.3283C29.7317 14.6037 28.4375 15.6391 26.8432 15.6391V15.6374ZM6.47745 7.846C7.0051 7.85582 7.52987 7.78116 8.02093 7.62641C8.512 7.47166 8.95943 7.23994 9.33695 6.94487C9.71447 6.64981 10.0144 6.29734 10.2193 5.9082C10.4241 5.51906 10.5296 5.10109 10.5296 4.67886C10.5296 4.25663 10.4241 3.83866 10.2193 3.44952C10.0144 3.06037 9.71447 2.70791 9.33695 2.41284C8.95943 2.11777 8.512 1.88605 8.02093 1.7313C7.52987 1.57655 7.0051 1.50189 6.47745 1.51171C5.44343 1.53096 4.45985 1.87309 3.73704 2.46495C3.01424 3.05681 2.60957 3.85141 2.60957 4.67886C2.60957 5.5063 3.01424 6.30091 3.73704 6.89277C4.45985 7.48462 5.44343 7.82675 6.47745 7.846ZM17.6096 11.7477C17.6096 10.774 16.6239 9.98543 15.4089 9.98543H6.4796C5.7338 9.9852 4.99525 10.1026 4.30617 10.3308C3.61709 10.559 2.99097 10.8936 2.46361 11.3155C1.93625 11.7374 1.51798 12.2383 1.23271 12.7895C0.947433 13.3408 0.800744 13.9316 0.801026 14.5283V16.594C0.801026 17.506 1.72674 18.2449 2.86674 18.2449H3.23531L3.8396 22.7191C3.89611 23.1392 4.14456 23.5278 4.53728 23.8104C4.92999 24.0929 5.4393 24.2495 5.96745 24.25H7.04317C7.5601 24.2498 8.05953 24.1002 8.44939 23.8286C8.83925 23.557 9.09326 23.1819 9.1646 22.7723L10.7782 13.5083H15.4067C16.6217 13.5083 17.6075 12.7197 17.6075 11.7477H17.6096Z" fill="#4A6267"/>
</g>
<defs>
<clipPath id="clip0_59424_10849">
<rect width="30" height="24" fill="white" transform="translate(0.75 0.75)"/>
</clipPath>
</defs>
</svg>
