<svg width="25" height="24" viewBox="0 0 25 24" fill="none" xmlns="http://www.w3.org/2000/svg">
<path d="M5.15381 19C4.87048 19 4.63281 18.904 4.44081 18.712C4.24948 18.5207 4.15381 18.2833 4.15381 18C4.15381 17.7167 4.24948 17.4793 4.44081 17.288C4.63281 17.096 4.87048 17 5.15381 17H6.15381V10C6.15381 8.61667 6.57048 7.38733 7.40381 6.312C8.23714 5.23733 9.32048 4.53333 10.6538 4.2V3.5C10.6538 3.08333 10.7998 2.72933 11.0918 2.438C11.3831 2.146 11.7371 2 12.1538 2C12.5705 2 12.9245 2.146 13.2158 2.438C13.5078 2.72933 13.6538 3.08333 13.6538 3.5V4.2C14.9871 4.53333 16.0705 5.23733 16.9038 6.312C17.7371 7.38733 18.1538 8.61667 18.1538 10V17H19.1538C19.4371 17 19.6745 17.096 19.8658 17.288C20.0578 17.4793 20.1538 17.7167 20.1538 18C20.1538 18.2833 20.0578 18.5207 19.8658 18.712C19.6745 18.904 19.4371 19 19.1538 19H5.15381ZM12.1538 22C11.6038 22 11.1331 21.8043 10.7418 21.413C10.3498 21.021 10.1538 20.55 10.1538 20H14.1538C14.1538 20.55 13.9581 21.021 13.5668 21.413C13.1748 21.8043 12.7038 22 12.1538 22Z" fill="white"/>
</svg>
