<svg width="17" height="17" viewBox="0 0 17 17" fill="none" xmlns="http://www.w3.org/2000/svg">
<path d="M16.1158 15.6137L12.2693 11.7671C13.2228 10.6047 13.7975 9.11572 13.7975 7.49286C13.7975 3.77041 10.7771 0.75 7.05463 0.75C3.32891 0.75 0.311768 3.77041 0.311768 7.49286C0.311768 11.2153 3.32891 14.2357 7.05463 14.2357C8.67748 14.2357 10.1632 13.6643 11.3256 12.7108L15.1722 16.5541C15.4334 16.8153 15.8546 16.8153 16.1158 16.5541C16.3771 16.2961 16.3771 15.8716 16.1158 15.6137ZM7.05463 12.8937C4.0734 12.8937 1.65054 10.4708 1.65054 7.49286C1.65054 4.5149 4.0734 2.08878 7.05463 2.08878C10.0326 2.08878 12.4587 4.5149 12.4587 7.49286C12.4587 10.4708 10.0326 12.8937 7.05463 12.8937Z" fill="#006874"/>
</svg>
