<svg width="26" height="24" viewBox="0 0 26 24" fill="none" xmlns="http://www.w3.org/2000/svg">
<g id="graph-bar-increase--up-product-performance-increase-arrow-graph-business-chart">
<path id="Vector" d="M1.9408 11.1509L24.0208 1.49548" stroke="#001F24" stroke-linecap="round" stroke-linejoin="round"/>
<path id="Vector_2" d="M19.8929 0L24.0209 1.49538L22.4849 5.46462" stroke="#001F24" stroke-linecap="round" stroke-linejoin="round"/>
<path id="Vector_3" d="M25.0001 24H20.2001V11.0769C20.2001 10.8321 20.3013 10.5973 20.4812 10.4242C20.6613 10.2511 20.9055 10.1539 21.1601 10.1539H24.0401C24.2947 10.1539 24.5389 10.2511 24.719 10.4242C24.8989 10.5973 25.0001 10.8321 25.0001 11.0769V24Z" stroke="#001F24" stroke-linecap="round" stroke-linejoin="round"/>
<path id="Vector_4" d="M15.4 24H10.6V13.8462C10.6 13.6014 10.7011 13.3666 10.8812 13.1935C11.0612 13.0204 11.3054 12.9231 11.56 12.9231H14.44C14.6946 12.9231 14.9388 13.0204 15.1188 13.1935C15.2988 13.3666 15.4 13.6014 15.4 13.8462V24Z" stroke="#001F24" stroke-linecap="round" stroke-linejoin="round"/>
<path id="Vector_5" d="M5.8 24H1V16.6153C1 16.3705 1.10114 16.1357 1.28118 15.9626C1.46121 15.7895 1.70539 15.6923 1.96 15.6923H4.84C5.09461 15.6923 5.3388 15.7895 5.51882 15.9626C5.69885 16.1357 5.8 16.3705 5.8 16.6153V24Z" stroke="#001F24" stroke-linecap="round" stroke-linejoin="round"/>
</g>
</svg>
