<svg width="24" height="24" viewBox="0 0 24 24" fill="none" xmlns="http://www.w3.org/2000/svg">
<g id="Group 10">
<path id="Vector" fill-rule="evenodd" clip-rule="evenodd" d="M14.4 5.05263V2.52632H9.6V5.05263H14.4ZM2.4 7.57895V21.4737H21.6V7.57895H2.4ZM21.6 5.05263C22.932 5.05263 24 6.17684 24 7.57895V21.4737C24 22.8758 22.932 24 21.6 24H2.4C1.068 24 0 22.8758 0 21.4737L0.012 7.57895C0.012 6.17684 1.068 5.05263 2.4 5.05263H7.2V2.52632C7.2 1.12421 8.268 0 9.6 0H14.4C15.732 0 16.8 1.12421 16.8 2.52632V5.05263H21.6Z" fill="#171D1E"/>
</g>
</svg>
