<svg width="24" height="24" viewBox="0 0 24 24" fill="none" xmlns="http://www.w3.org/2000/svg">
<path id="Vector" d="M2.4 24C1.74 24 1.175 23.7389 0.705 23.2167C0.235 22.6944 0 22.0667 0 21.3333V2.66667C0 1.93333 0.235 1.30556 0.705 0.783333C1.175 0.261111 1.74 0 2.4 0H21.6C22.26 0 22.825 0.261111 23.295 0.783333C23.765 1.30556 24 1.93333 24 2.66667V21.3333C24 22.0667 23.765 22.6944 23.295 23.2167C22.825 23.7389 22.26 24 21.6 24H2.4ZM2.4 21.3333H21.6V2.66667H2.4V21.3333ZM4.8 18.6667H19.2V16H4.8V18.6667ZM4.8 13.3333H9.6V5.33333H4.8V13.3333ZM12 13.3333H19.2V10.6667H12V13.3333ZM12 8H19.2V5.33333H12V8Z" fill="black"/>
</svg>
